<?xml version="1.0" ?>
<!DOCTYPE svg  PUBLIC '-//W3C//DTD SVG 1.1//EN'  'http://www.w3.org/Graphics/SVG/1.1/DTD/svg11.dtd'>
<!-- Uploaded to: SVG Repo, www.svgrepo.com, Generator: SVG Repo Mixer Tools -->
<svg fill="#000000" width="800px" height="800px" style="fill-rule:evenodd;clip-rule:evenodd;stroke-linejoin:round;stroke-miterlimit:2;" version="1.1" xml:space="preserve" xmlns="http://www.w3.org/2000/svg" xmlns:serif="http://www.serif.com/" xmlns:xlink="http://www.w3.org/1999/xlink">
<g id="Icon">
<path d="M5.04,30c0.781,0.01 1.565,-0.283 2.161,-0.879l5.104,-5.121l10.655,-0c1.657,-0 3,-1.343 3,-3l0,-1.016l1.04,0c0.796,0 1.559,-0.316 2.121,-0.878c0.563,-0.563 0.879,-1.326 0.879,-2.122l-0,-1.968c0,-0.796 -0.316,-1.559 -0.879,-2.122c-0.562,-0.562 -1.325,-0.878 -2.121,-0.878l-1.04,-0l0,-1.718l3.164,-3.175c1.171,-1.171 1.171,-3.071 -0.001,-4.242l-0.002,-0.002c-1.171,-1.172 -3.071,-1.172 -4.242,-0l-5.122,5.121l-14.797,-0c-1.657,-0 -3,1.343 -3,3l0,10c0,1.297 0.824,2.402 1.977,2.821l-1.058,1.058c-1.172,1.171 -1.172,3.071 -0,4.242c0.596,0.596 1.38,0.889 2.161,0.879Zm22.668,-25.706c0.39,0.391 0.389,1.023 -0.001,1.413c0,0 -22,22 -22,22c-0.185,0.185 -0.425,0.283 -0.667,0.292c-0.243,-0.009 -0.482,-0.107 -0.667,-0.292c-0.391,-0.39 -0.391,-1.024 -0,-1.414c-0,-0 21.922,-21.998 21.922,-21.998c0.39,-0.39 1.023,-0.39 1.413,-0.001Zm-9.951,5.706l-12,12l-0.797,-0c-0.552,0 -1,-0.448 -1,-1c0,-0 0,-10 0,-10c0,-0.552 0.448,-1 1,-1l12.797,0Zm6.203,2.305l0,8.695c0,0.552 -0.448,1 -1,1l-8.662,-0l9.662,-9.695Zm4.04,2.711l-0,1.968c0,0.266 -0.105,0.52 -0.293,0.708c-0.187,0.187 -0.442,0.292 -0.707,0.292l-1,0c-0,0 -0,-3.968 -0,-3.968c0,-0 1,-0 1,-0c0.265,-0 0.52,0.105 0.707,0.292c0.188,0.188 0.293,0.442 0.293,0.708Z"/>
</g>
</svg>